<svg version="1.1" id="Layer_1" xmlns="http://www.w3.org/2000/svg" xmlns:xlink="http://www.w3.org/1999/xlink" x="0px" y="0px"
	 width="100%" viewBox="0 0 1024 1024" enable-background="new 0 0 1024 1024" xml:space="preserve">
<path fill="#000000" opacity="1.000000" stroke="none" 
	d="
M625.918091,606.884155 
	C602.515137,634.209167 573.585083,651.348206 538.427917,657.660706 
	C460.846466,671.590454 385.113892,620.323669 369.256897,543.191040 
	C352.996338,464.095215 402.049500,387.742340 480.844086,369.501984 
	C560.691528,351.017853 642.725464,404.736938 657.238953,485.328064 
	C665.350098,530.367798 654.885315,570.895020 625.918091,606.884155 
M449.145874,470.731110 
	C436.757324,474.162354 424.463715,477.855743 414.186371,486.048462 
	C410.686493,488.838409 407.081696,491.659363 404.885895,496.711731 
	C416.786041,493.233582 427.942139,493.242950 439.239349,495.436218 
	C455.973816,498.685089 471.150391,505.765503 485.990631,513.770569 
	C497.516724,519.987915 509.639801,524.614929 522.664001,526.269409 
	C540.908325,528.586792 558.515503,526.784790 573.155334,514.378296 
	C592.739929,497.781372 602.013672,476.527100 599.528992,450.691620 
	C597.715332,431.833466 580.600220,412.142059 562.538696,408.031097 
	C562.169373,409.962067 561.704285,411.872101 561.450012,413.809845 
	C559.984924,424.973358 555.133911,434.334320 546.915955,442.058136 
	C536.685791,451.673309 523.950012,455.968964 510.750702,459.086639 
	C490.663391,463.831238 470.031708,465.754333 449.145874,470.731110 
M526.570862,577.783081 
	C541.235352,577.757568 555.905945,577.981262 570.562256,577.622253 
	C581.042358,577.365540 591.516663,576.333679 601.511780,572.762390 
	C612.134277,568.967041 619.698303,562.077698 623.557495,551.206848 
	C629.406494,534.731018 630.808350,517.745605 629.434998,500.508087 
	C629.040588,495.556885 628.518494,490.401611 626.077026,484.944672 
	C625.340942,487.246307 624.862366,488.796173 624.350525,490.335022 
	C616.412781,514.196106 602.132629,533.083801 580.134949,545.593994 
	C554.822205,559.989441 528.188293,560.328003 500.872803,552.306396 
	C485.559052,547.809326 471.933960,539.599915 457.558960,533.033997 
	C445.815613,527.670105 433.732788,523.560730 420.512024,524.247253 
	C411.367706,524.722107 405.596405,529.314575 404.482727,537.668213 
	C403.957428,541.608459 403.814575,545.669556 404.825317,549.596313 
	C412.666046,580.059082 432.357880,601.000793 458.722504,616.567261 
	C461.816193,618.393860 462.985291,617.152100 463.880402,613.985840 
	C468.464752,597.770386 479.159912,587.492981 495.087311,582.372131 
	C505.020477,579.178528 515.285767,578.382507 526.570862,577.783081 
M517.882080,425.417755 
	C527.067139,421.594482 532.484619,415.359558 531.843750,404.756195 
	C531.428772,397.888306 530.934692,396.876770 524.180298,396.414703 
	C484.987122,393.733490 451.910004,406.597778 425.343994,435.676392 
	C421.407715,439.984985 417.735077,444.580048 414.432068,450.853668 
	C434.654419,442.278107 454.783844,438.761536 475.002014,435.451050 
	C489.251862,433.117889 503.604462,431.040405 517.882080,425.417755 
M566.402344,608.161011 
	C551.756470,608.194519 537.109924,608.152893 522.465088,608.295105 
	C515.789917,608.359924 509.230377,609.490051 502.852966,611.512024 
	C497.070801,613.345337 493.805054,617.354248 492.585449,623.262878 
	C491.858459,626.785034 492.787018,628.331360 496.637665,628.846924 
	C524.795410,632.617249 550.848145,626.848999 574.988098,612.052368 
	C576.963501,610.841614 578.814941,609.428467 581.848572,607.332275 
	C575.968933,607.658691 571.665405,607.897644 566.402344,608.161011 
z"/>
<path fill="#000000" opacity="1.000000" stroke="none" 
	d="
M163.331161,60.581978 
	C161.498184,60.203148 160.334198,58.550724 158.333771,60.544514 
	C155.644455,63.224907 152.167542,60.483349 149.050339,60.605820 
	C146.290939,60.714241 143.352997,60.967358 140.614182,61.233955 
	C137.509338,61.536186 134.905655,61.612637 133.182739,58.842648 
	C132.071320,57.055775 132.358215,54.975262 133.531525,53.167439 
	C135.543747,50.066994 138.344513,50.984554 140.828644,51.899792 
	C142.441589,51.056316 142.005005,48.801044 144.240967,48.480679 
	C145.793442,49.904964 146.829697,52.892956 149.773499,51.476963 
	C151.412659,53.649628 147.788925,54.836422 149.581299,56.971680 
	C151.197479,56.705502 150.759033,54.978874 151.306992,54.048065 
	C152.295822,52.368313 153.892120,50.330208 155.457550,51.154449 
	C159.978821,53.535015 164.163208,50.572376 168.564941,51.045582 
	C174.798157,51.715683 176.719315,54.491859 173.938660,60.522732 
	C170.633926,60.025772 172.986115,56.219650 170.566650,54.971169 
	C168.416763,56.228420 170.781830,59.264618 168.455032,60.568882 
	C165.566711,59.969501 167.762207,56.645744 165.865585,55.401527 
	C163.569473,56.392803 165.089615,59.119606 163.331161,60.581978 
z"/>
<path fill="#000000" opacity="1.000000" stroke="none" 
	d="
M60.946918,59.286392 
	C61.140266,56.273304 59.107475,52.386456 62.679661,51.457363 
	C66.606743,50.435970 71.333595,49.421490 74.394341,54.012703 
	C77.465248,49.811214 79.222366,49.757893 85.206360,53.885712 
	C86.515823,52.003963 88.023453,50.178474 90.773399,51.307640 
	C93.317528,52.352295 94.014923,54.503368 94.120552,56.947086 
	C94.283066,60.706787 91.729652,63.182999 88.468437,61.466072 
	C83.568001,58.886150 80.423653,61.782249 76.455162,63.891109 
	C75.377975,60.554989 70.084053,60.950447 70.742409,56.137646 
	C68.315407,57.221359 70.445030,60.903664 67.556221,60.788982 
	C64.783173,60.678905 65.784187,57.660347 64.751053,56.146809 
	C63.018452,56.818180 65.863701,62.244839 60.946918,59.286392 
z"/>
<path fill="#000000" opacity="1.000000" stroke="none" 
	d="
M68.025108,82.026054 
	C68.603638,80.308815 69.330536,78.623825 69.712997,76.863976 
	C70.010399,75.495483 70.969299,74.258987 71.925842,74.780739 
	C75.640022,76.806686 78.705261,72.223259 82.409149,74.105080 
	C84.198296,75.014084 84.554390,71.669373 86.690536,72.005424 
	C88.613342,72.749336 87.004265,75.088631 88.524437,76.418457 
	C91.410286,74.995987 94.722145,72.977776 97.336334,76.945900 
	C98.893372,79.309341 98.615143,81.909065 96.298782,83.627754 
	C93.274582,85.871628 90.687057,84.663040 88.414917,81.551491 
	C88.108482,82.312416 87.982056,82.918526 87.655785,83.384811 
	C86.395195,85.186363 83.438545,85.287178 82.758644,84.748138 
	C78.289558,81.205002 72.345551,88.174210 68.218613,82.259247 
	C68.000702,82.000069 68.025108,82.026054 68.025108,82.026054 
z"/>
<path fill="#000000" opacity="1.000000" stroke="none" 
	d="
M67.988998,81.986694 
	C65.484772,85.680908 64.455887,85.729607 59.605900,82.295319 
	C54.384594,86.173012 48.359253,83.804443 42.661304,84.277977 
	C41.588284,84.367149 40.665909,83.682251 40.549938,82.545532 
	C40.192566,79.042702 39.148682,75.446922 41.364994,71.993988 
	C46.208553,73.550568 39.533875,83.233681 48.356571,81.555550 
	C50.765675,74.416397 50.987564,74.239403 58.101509,76.084328 
	C59.649353,76.485748 60.606110,75.647179 61.823154,75.230927 
	C63.841137,74.540741 65.924019,73.918503 67.437622,75.997948 
	C67.029022,78.787651 62.617516,77.064598 63.129547,80.172852 
	C63.497639,82.407326 65.721367,81.712990 67.650078,81.986870 
	C68.025108,82.026054 68.000702,82.000069 67.988998,81.986694 
z"/>
<path fill="#000000" opacity="1.000000" stroke="none" 
	d="
M125.376526,71.909348 
	C130.028458,73.910294 133.250473,76.680618 133.138443,82.422668 
	C136.124039,80.006500 133.967026,76.538086 137.073410,75.102905 
	C139.954468,77.335167 139.283157,80.434898 138.134323,82.983948 
	C137.004730,85.490318 134.166916,85.325417 131.986679,84.394585 
	C129.142563,83.180298 125.727654,84.490517 123.115372,81.640701 
	C121.830185,80.238663 120.943413,83.648544 118.890144,83.990097 
	C116.518822,80.616302 117.218529,76.667091 118.288979,73.303665 
	C119.206635,70.420349 122.604797,71.950394 125.376526,71.909348 
z"/>
<path fill="#000000" opacity="1.000000" stroke="none" 
	d="
M117.059891,51.358299 
	C120.569397,55.231731 114.222435,54.238739 114.763802,56.296730 
	C114.438766,59.073914 118.062492,57.357613 117.835648,59.932457 
	C115.686920,61.274055 113.517380,63.023540 111.047897,64.054749 
	C108.770660,65.005692 105.809929,65.826729 106.161842,61.367363 
	C106.273636,59.950703 105.709023,58.826984 104.658447,57.853664 
	C103.784988,58.781078 104.323158,60.667130 101.959831,60.803249 
	C98.854134,60.266117 102.132324,56.141125 99.454971,54.916672 
	C96.749466,55.808342 99.446053,60.087772 95.700577,60.616592 
	C94.077477,57.912243 94.021797,54.804493 95.569862,52.356556 
	C97.185196,49.802238 100.199333,50.600899 102.248810,52.100086 
	C104.181259,53.513680 105.252495,51.210922 106.469231,51.560440 
	C109.137672,52.796303 107.178276,55.982285 109.532379,57.280312 
	C111.758980,56.180782 110.209511,53.478905 112.163345,51.868816 
	C113.344704,51.719490 115.057358,51.503010 117.059891,51.358299 
z"/>
<path fill="#000000" opacity="1.000000" stroke="none" 
	d="
M44.954819,58.030338 
	C48.061699,58.660240 49.533504,57.404991 50.263592,54.698509 
	C51.093647,51.621441 53.326435,50.345600 56.373177,51.286865 
	C59.339722,52.203354 60.568958,54.501076 59.895473,57.517445 
	C59.197105,60.645248 56.751049,62.083801 53.919495,61.372234 
	C51.501144,60.764507 49.450424,61.286549 47.192436,61.579967 
	C43.536873,62.054989 41.208878,59.988117 39.936096,56.768635 
	C38.725178,53.705635 40.031399,51.129509 42.326336,49.250137 
	C44.718571,47.291088 47.333153,47.263531 50.247387,49.741386 
	C47.602413,51.556709 43.623135,50.316994 42.884579,54.106125 
	C42.549526,55.825104 43.324940,56.974220 44.954819,58.030338 
z"/>
<path fill="#000000" opacity="1.000000" stroke="none" 
	d="
M154.736893,80.274284 
	C155.595566,82.790932 154.317139,84.843521 152.531281,84.497139 
	C148.514847,83.718117 144.392700,85.524536 140.650757,84.013351 
	C139.766586,81.885841 141.630753,82.104080 142.439606,81.490898 
	C141.448639,79.802704 138.825409,78.793076 140.329422,76.417252 
	C141.568283,74.460289 143.796570,74.142326 145.652847,74.955544 
	C148.441544,76.177223 151.215027,73.501343 153.851135,75.286125 
	C155.643005,76.625725 152.155228,78.762878 154.736893,80.274284 
z"/>
<path fill="#000000" opacity="1.000000" stroke="none" 
	d="
M158.339172,83.896866 
	C155.451218,80.034218 156.249756,75.963562 156.959259,71.117332 
	C160.524200,73.714470 159.225159,77.010338 159.938461,79.604378 
	C162.692886,78.913872 160.138916,74.480629 163.880035,74.685883 
	C165.659607,74.783508 167.257568,75.082939 168.057693,76.805267 
	C169.066971,78.977806 169.670670,81.358780 168.196472,83.476280 
	C167.186951,84.926338 165.371750,84.945549 163.638412,84.832245 
	C161.913956,84.719528 160.673691,82.300781 158.339172,83.896866 
z"/>
<path fill="#000000" opacity="1.000000" stroke="none" 
	d="
M107.816780,77.073456 
	C107.818199,80.250671 110.554489,81.309425 111.888756,83.296028 
	C106.594658,85.076385 106.594658,85.076385 103.714630,78.779274 
	C101.000374,79.439743 103.302513,83.051643 100.362617,83.905045 
	C97.922653,81.434204 97.976227,78.002609 99.873886,75.871262 
	C102.014473,73.467087 105.284912,74.098145 107.816780,77.073456 
z"/>
<path fill="#000000" opacity="1.000000" stroke="none" 
	d="
M123.715515,50.367439 
	C125.714767,47.288643 128.749557,47.100616 133.245285,49.783699 
	C127.939766,51.820198 130.179474,57.087036 128.383224,61.138649 
	C123.979797,58.443829 127.944786,52.877132 123.715515,50.367439 
z"/>
</svg>